<?xml version="1.0" encoding="UTF-8" standalone="no"?>
<!DOCTYPE svg PUBLIC "-//W3C//DTD SVG 1.1//EN" "http://www.w3.org/Graphics/SVG/1.1/DTD/svg11.dtd">
<svg version="1.1" xmlns="http://www.w3.org/2000/svg" xmlns:xlink="http://www.w3.org/1999/xlink" preserveAspectRatio="xMidYMid meet" viewBox="100.57638419379842 117.25276020155039 393.82922700000006 174.74031900000003" width="386.83" height="167.74"><defs><path d="M179.6 228.08C179.6 236.36 172.89 243.08 164.6 243.08C156.32 243.08 149.6 236.36 149.6 228.08C149.6 219.79 156.32 213.08 164.6 213.08C172.89 213.08 179.6 219.79 179.6 228.08Z" id="a2ecZIKMZM"></path><path d="M175.93 227.91C175.93 234.26 170.79 239.41 164.43 239.41C158.08 239.41 152.93 234.26 152.93 227.91C152.93 221.56 158.08 216.41 164.43 216.41C170.79 216.41 175.93 221.56 175.93 227.91Z" id="bMvdX0ZSh"></path><path d="M329.55 226.94C329.55 241.37 317.85 253.07 303.42 253.07C288.99 253.07 277.29 241.37 277.29 226.94C277.29 212.51 288.99 200.81 303.42 200.81C317.85 200.81 329.55 212.51 329.55 226.94Z" id="c2YCoPyuU"></path><path d="M329.79 227C329.79 241.55 318 253.34 303.46 253.34C288.91 253.34 277.12 241.55 277.12 227C277.12 212.46 288.91 200.66 303.46 200.66C318 200.66 329.79 212.46 329.79 227Z" id="dDR8tzPEB"></path><path d="M446.7 227.43C446.7 235.72 439.98 242.43 431.7 242.43C423.41 242.43 416.7 235.72 416.7 227.43C416.7 219.15 423.41 212.43 431.7 212.43C439.98 212.43 446.7 219.15 446.7 227.43Z" id="a1EIQR3Kot"></path><path d="M443.03 227.27C443.03 233.62 437.88 238.77 431.53 238.77C425.18 238.77 420.03 233.62 420.03 227.27C420.03 220.91 425.18 215.77 431.53 215.77C437.88 215.77 443.03 220.91 443.03 227.27Z" id="c142k4mYM0"></path><path d="M283.84 205.52L237.37 153.36" id="a301VcPpPx"></path><path d="M391.71 151.41L239.21 151.41" id="awo0FLNQH"></path><path d="M490.91 226.79C490.91 260.06 463.93 287.03 430.66 287.03C397.39 287.03 370.42 260.06 370.42 226.79C370.42 193.51 397.39 166.54 430.66 166.54C463.93 166.54 490.91 193.51 490.91 226.79Z" id="l5nMJialG"></path><path d="M424.89 214.59L388.43 151.87" id="b3kUIQc5o3"></path><path d="M224.56 228.25C224.56 261.52 197.59 288.49 164.32 288.49C131.05 288.49 104.08 261.52 104.08 228.25C104.08 194.98 131.05 168.01 164.32 168.01C197.59 168.01 224.56 194.98 224.56 228.25Z" id="baAPuo0sr"></path><path d="M178.43 227.9L274.47 227.9" id="eVwGBiWMi"></path><path d="M173.32 216.82L241.67 148.67" id="fu35BornF"></path><path d="M251.69 136.92C251.69 136.92 251.69 136.92 251.69 136.92C251.69 147.09 251.69 152.73 251.69 153.86C251.69 153.86 251.69 153.86 251.69 153.86C228.1 153.86 214.99 153.86 212.37 153.86C212.37 153.86 212.37 153.86 212.37 153.86C212.37 143.7 212.37 138.05 212.37 136.92C212.37 136.92 212.37 136.92 212.37 136.92C235.96 136.92 249.06 136.92 251.69 136.92Z" id="a696iPnMmz"></path><path d="M409.49 120.95C409.49 120.95 409.49 120.95 409.49 120.95C415.12 127.04 418.25 130.42 418.88 131.1C418.88 131.1 418.88 131.1 418.88 131.1C401.56 147.11 391.93 156.01 390.01 157.79C390.01 157.79 390.01 157.79 390.01 157.79C384.38 151.7 381.25 148.32 380.63 147.64C380.63 147.64 380.63 147.64 380.63 147.64C397.95 131.63 407.57 122.73 409.49 120.95Z" id="a11Ypxdcgy"></path><path d="M418.92 120.75C418.92 120.75 418.92 120.75 418.92 120.75C418.92 127 418.92 130.46 418.92 131.16C418.92 131.16 418.92 131.16 418.92 131.16C392.11 131.16 377.22 131.16 374.24 131.16C374.24 131.16 374.24 131.16 374.24 131.16C374.24 124.91 374.24 121.45 374.24 120.75C374.24 120.75 374.24 120.75 374.24 120.75C401.05 120.75 415.94 120.75 418.92 120.75Z" id="a5uCIq5TwT"></path><path d="M319.31 227.64C319.31 236.8 312.09 244.23 303.18 244.23C294.27 244.23 287.05 236.8 287.05 227.64C287.05 218.48 294.27 211.05 303.18 211.05C312.09 211.05 319.31 218.48 319.31 227.64Z" id="cjFxxqQ2u"></path><path d="M307.3 226.19C307.3 226.19 307.3 226.19 307.3 226.19C307.3 251.57 307.3 265.67 307.3 268.49C307.3 268.49 307.3 268.49 307.3 268.49C302.73 268.49 300.19 268.49 299.69 268.49C299.69 268.49 299.69 268.49 299.69 268.49C299.69 243.11 299.69 229.01 299.69 226.19C299.69 226.19 299.69 226.19 299.69 226.19C304.25 226.19 306.79 226.19 307.3 226.19Z" id="jcO3pi66P"></path><path d="M315.59 260.34C315.59 260.34 315.59 260.34 315.59 260.34C315.59 267.28 315.59 271.14 315.59 271.91C315.59 271.91 315.59 271.91 315.59 271.91C301.36 271.91 293.46 271.91 291.88 271.91C291.88 271.91 291.88 271.91 291.88 271.91C291.88 264.97 291.88 261.11 291.88 260.34C291.88 260.34 291.88 260.34 291.88 260.34C306.11 260.34 314.01 260.34 315.59 260.34Z" id="k7nuzSsF4w"></path></defs><g><g><use xlink:href="#a2ecZIKMZM" opacity="1" fill="#000000" fill-opacity="1"></use><g><use xlink:href="#a2ecZIKMZM" opacity="1" fill-opacity="0" stroke="#000000" stroke-width="0" stroke-opacity="1"></use></g></g><g><use xlink:href="#bMvdX0ZSh" opacity="1" fill="#444444" fill-opacity="1"></use><g><use xlink:href="#bMvdX0ZSh" opacity="1" fill-opacity="0" stroke="#000000" stroke-width="0" stroke-opacity="1"></use></g></g><g><use xlink:href="#c2YCoPyuU" opacity="1" fill="#000000" fill-opacity="0"></use><g><use xlink:href="#c2YCoPyuU" opacity="1" fill-opacity="0" stroke="#000000" stroke-width="7" stroke-opacity="1"></use></g></g><g><use xlink:href="#dDR8tzPEB" opacity="1" fill="#444444" fill-opacity="1"></use><g><use xlink:href="#dDR8tzPEB" opacity="1" fill-opacity="0" stroke="#000000" stroke-width="0" stroke-opacity="1"></use></g></g><g><use xlink:href="#a1EIQR3Kot" opacity="1" fill="#000000" fill-opacity="1"></use><g><use xlink:href="#a1EIQR3Kot" opacity="1" fill-opacity="0" stroke="#000000" stroke-width="0" stroke-opacity="1"></use></g></g><g><use xlink:href="#c142k4mYM0" opacity="1" fill="#444444" fill-opacity="1"></use><g><use xlink:href="#c142k4mYM0" opacity="1" fill-opacity="0" stroke="#000000" stroke-width="0" stroke-opacity="1"></use></g></g><g><use xlink:href="#a301VcPpPx" opacity="1" fill="#000000" fill-opacity="0"></use><g><use xlink:href="#a301VcPpPx" opacity="1" fill-opacity="0" stroke="#005fbf" stroke-width="7" stroke-opacity="1"></use></g></g><g><use xlink:href="#awo0FLNQH" opacity="1" fill="#000000" fill-opacity="0"></use><g><use xlink:href="#awo0FLNQH" opacity="1" fill-opacity="0" stroke="#005fbf" stroke-width="7" stroke-opacity="1"></use></g></g><g><use xlink:href="#l5nMJialG" opacity="1" fill="#000000" fill-opacity="0"></use><g><use xlink:href="#l5nMJialG" opacity="1" fill-opacity="0" stroke="#426373" stroke-width="7" stroke-opacity="1"></use></g></g><g><use xlink:href="#b3kUIQc5o3" opacity="1" fill="#000000" fill-opacity="0"></use><g><use xlink:href="#b3kUIQc5o3" opacity="1" fill-opacity="0" stroke="#005fbf" stroke-width="7" stroke-opacity="1"></use></g></g><g><use xlink:href="#baAPuo0sr" opacity="1" fill="#000000" fill-opacity="0"></use><g><use xlink:href="#baAPuo0sr" opacity="1" fill-opacity="0" stroke="#426373" stroke-width="7" stroke-opacity="1"></use></g></g><g><use xlink:href="#eVwGBiWMi" opacity="1" fill="#000000" fill-opacity="0"></use><g><use xlink:href="#eVwGBiWMi" opacity="1" fill-opacity="0" stroke="#005fbf" stroke-width="7" stroke-opacity="1"></use></g></g><g><use xlink:href="#fu35BornF" opacity="1" fill="#000000" fill-opacity="0"></use><g><use xlink:href="#fu35BornF" opacity="1" fill-opacity="0" stroke="#005fbf" stroke-width="7" stroke-opacity="1"></use></g></g><g><use xlink:href="#a696iPnMmz" opacity="1" fill="#426373" fill-opacity="1"></use><g><use xlink:href="#a696iPnMmz" opacity="1" fill-opacity="0" stroke="#000000" stroke-width="7" stroke-opacity="0"></use></g></g><g><use xlink:href="#a11Ypxdcgy" opacity="1" fill="#426373" fill-opacity="1"></use><g><use xlink:href="#a11Ypxdcgy" opacity="1" fill-opacity="0" stroke="#000000" stroke-width="7" stroke-opacity="0"></use></g></g><g><use xlink:href="#a5uCIq5TwT" opacity="1" fill="#005fbf" fill-opacity="1"></use><g><use xlink:href="#a5uCIq5TwT" opacity="1" fill-opacity="0" stroke="#000000" stroke-width="7" stroke-opacity="0"></use></g></g><g><use xlink:href="#cjFxxqQ2u" opacity="1" fill="#000000" fill-opacity="0"></use><g><use xlink:href="#cjFxxqQ2u" opacity="1" fill-opacity="0" stroke="#000000" stroke-width="3" stroke-opacity="1"></use></g></g><g><use xlink:href="#jcO3pi66P" opacity="1" fill="#426373" fill-opacity="1"></use><g><use xlink:href="#jcO3pi66P" opacity="1" fill-opacity="0" stroke="#000000" stroke-width="7" stroke-opacity="0"></use></g></g><g><use xlink:href="#k7nuzSsF4w" opacity="1" fill="#426373" fill-opacity="1"></use><g><use xlink:href="#k7nuzSsF4w" opacity="1" fill-opacity="0" stroke="#000000" stroke-width="7" stroke-opacity="0"></use></g></g></g></svg>